<?xml version="1.0" encoding="UTF-8"?>
<svg version="1.1" xmlns="http://www.w3.org/2000/svg" width="420" height="435">
<path d="M0 0 C138.6 0 277.2 0 420 0 C420 143.55 420 287.1 420 435 C281.4 435 142.8 435 0 435 C0 291.45 0 147.9 0 0 Z " fill="#FEFEFE" transform="translate(0,0)"/>
<path d="M0 0 C0.7885712 -0.00367669 1.5771424 -0.00735338 2.38960969 -0.01114148 C5.03484201 -0.02216389 7.68003503 -0.02601973 10.32528687 -0.02983093 C12.2209587 -0.03609672 14.11662931 -0.04274363 16.01229858 -0.04974365 C22.24080553 -0.07077447 28.46931268 -0.08114583 34.69784546 -0.09111023 C36.84346911 -0.09515829 38.98909264 -0.09927523 41.13471603 -0.10346031 C51.21649966 -0.12251063 61.29827598 -0.13674143 71.38007414 -0.14507228 C83.00990422 -0.15484142 94.63954381 -0.18115327 106.26930678 -0.22157317 C115.26310149 -0.25175662 124.25684168 -0.26654332 133.25068605 -0.26985329 C138.61995483 -0.27220142 143.98902006 -0.28113103 149.35823441 -0.30631447 C154.41275515 -0.32963879 159.46693896 -0.33381082 164.52149963 -0.32355309 C166.37175494 -0.32305866 168.22202707 -0.32935145 170.07223129 -0.34310913 C183.22673337 -0.43541195 193.24305604 0.39511101 203.24081421 9.86201477 C209.41238128 16.9830537 211.35749205 24.66480824 211.40878296 33.89717102 C211.42296265 35.04701477 211.43714233 36.19685852 211.45175171 37.38154602 C210.91053984 46.22439753 208.15968393 52.86756395 203.90878296 60.58467102 C202.9534284 62.35370171 201.99899779 64.12323169 201.04550171 65.89326477 C200.57934448 66.75290833 200.11318726 67.61255188 199.63290405 68.49824524 C197.40904365 72.6713489 195.30913554 76.90474126 193.22128296 81.14717102 C192.56128296 81.14717102 191.90128296 81.14717102 191.22128296 81.14717102 C190.94743774 81.86920715 190.67359253 82.59124329 190.39144897 83.3351593 C189.25365212 86.06938508 187.9573739 88.56393899 186.49862671 91.13935852 C185.96463257 92.08416077 185.43063843 93.02896301 184.88046265 94.00239563 C184.31230835 94.99892151 183.74415405 95.99544739 183.15878296 97.02217102 C182.57387085 98.05285706 181.98895874 99.08354309 181.38632202 100.14546204 C177.80147606 106.44059722 174.14372143 112.68360766 170.38388062 118.8754425 C167.84686376 123.06550425 165.41816141 127.30609949 163.03378296 131.58467102 C159.24352492 138.3849643 155.34142018 145.1157934 151.40878296 151.83467102 C146.31549823 160.53741888 141.27505319 169.26783744 136.28427124 178.02973938 C133.11155987 183.59787477 129.90385647 189.14265754 126.65487671 194.66670227 C125.33545042 196.94963332 124.08675412 199.25826551 122.84628296 201.58467102 C116.94240619 212.20776508 110.82677705 222.5584055 98.71347046 226.63545227 C89.9465679 228.43555295 81.13096884 228.33226205 73.34628296 223.65888977 C64.9343096 217.67463666 60.70013405 209.59742635 55.70907593 200.76045227 C53.52121987 196.91752295 51.27443108 193.10977352 49.0340271 189.2973175 C43.92537598 180.59575378 38.90967885 171.85362426 34.04721069 163.0124054 C28.83662668 153.57739451 23.34231703 144.30571812 17.89364624 135.0070343 C15.48906663 130.89502766 13.10393448 126.77190975 10.72128296 122.64717102 C6.63303011 115.5753538 2.52553517 108.51493453 -1.59121704 101.45967102 C-2.46725586 99.95763123 -2.46725586 99.95763123 -3.36099243 98.42524719 C-6.41335867 93.19351401 -9.47111091 87.96501795 -12.53652954 82.74092102 C-15.47525282 77.73037272 -18.39855217 72.71118097 -21.30752563 67.68330383 C-22.211518 66.1249446 -23.11974761 64.56902282 -24.0350647 63.01728821 C-31.49118647 50.36786415 -34.10457861 36.51185987 -31.12637329 21.95967102 C-28.08660575 12.56639792 -22.55474321 6.59642097 -13.89199829 2.05732727 C-9.29132283 0.07589033 -4.95862901 -0.00124147 0 0 Z " fill="#010101" transform="translate(120.77871704101563,65.85282897949219)"/>
<path d="M0 0 C1.14815186 0.00427002 2.29630371 0.00854004 3.47924805 0.01293945 C13.30030558 0.20959687 22.52263234 1.15413692 30.09375 8.0234375 C32.35839933 10.5512327 33.29686692 12.29684951 34.3125 15.5 C34.68375 16.510625 35.055 17.52125 35.4375 18.5625 C36.3125 21.5 36.3125 21.5 36.3125 25.5 C33.54004986 25.63487595 30.77412912 25.73400807 28 25.8125 C27.21431641 25.85439453 26.42863281 25.89628906 25.61914062 25.93945312 C23.41242163 25.98640459 21.46896267 25.97717228 19.3125 25.5 C17.390625 23.08984375 17.390625 23.08984375 16.3125 20.5 C10.34594409 15.11085273 2.89540195 16.28756791 -4.6875 16.5 C-8.01906201 16.67534537 -10.75483554 16.89828099 -13.625 18.75 C-15.11894549 21.2106161 -15.18177897 22.67554877 -14.6875 25.5 C-11.4000817 28.72959938 -7.48416554 29.56015785 -3.125 30.5625 C-2.41118164 30.73458984 -1.69736328 30.90667969 -0.96191406 31.08398438 C3.02822998 32.02897121 7.01545849 32.83238585 11.0625 33.5 C21.06077142 35.25645309 30.05515793 38.07993726 37.3125 45.5 C40.47589308 50.32620227 39.86047621 55.96330526 39.3125 61.5 C37.79566272 67.62842981 34.30891655 70.74758184 29.1171875 74.078125 C20.14117804 78.62863676 12.9932323 80.1355877 2.875 80 C1.14926758 80.02320313 1.14926758 80.02320313 -0.61132812 80.046875 C-10.39642636 80.00252328 -18.45263867 77.85195992 -26.6875 72.5 C-31.4319851 66.87730321 -34.6875 60.9521965 -34.6875 53.5 C-22.56234983 52.5374743 -22.56234983 52.5374743 -17.6875 53.5 C-15.44412892 55.4228895 -14.75638129 56.76721483 -13.8671875 59.5546875 C-12.75201255 61.83180773 -12.75201255 61.83180773 -9.60546875 62.7421875 C-5.35252572 63.56479064 -1.44006123 63.79602732 2.875 63.75 C3.60396484 63.75773437 4.33292969 63.76546875 5.08398438 63.7734375 C10.63049047 63.75346808 15.22779684 63.10361781 19.75 59.625 C21.51613422 57.66266054 21.51613422 57.66266054 21.3125 55.4375 C20.01035344 52.91459104 18.72224139 52.00906446 16.3125 50.5 C13.39487677 49.71679217 13.39487677 49.71679217 10.1484375 49.2890625 C8.94316406 49.09570312 7.73789063 48.90234375 6.49609375 48.703125 C3.98109662 48.32136133 1.46547667 47.94367574 -1.05078125 47.5703125 C-7.89731039 46.46439068 -13.56562647 45.04816916 -19.61474609 41.59912109 C-21.65194175 40.5188555 -23.45814093 40.0284121 -25.6875 39.5 C-29.56573727 36.41342125 -31.48706577 33.00325672 -32.140625 28.1015625 C-32.32643162 13.5776782 -32.32643162 13.5776782 -28.08984375 8.63671875 C-19.92265529 0.79426939 -10.96426998 -0.06134192 0 0 Z " fill="#F6F6F6" transform="translate(207.6875,114.5)"/>
<path d="M0 0 C0.33 0 0.66 0 1 0 C1.02578125 0.89460938 1.0515625 1.78921875 1.078125 2.7109375 C1.51720837 12.07139651 2.89549491 19.34324236 8.125 27.1875 C10 30 10 30 11.0625 33.8125 C11.371875 34.864375 11.68125 35.91625 12 37 C12.99 37.33 13.98 37.66 15 38 C17.64951093 41.91031269 19.4136792 46.30943359 20 51 C20.66 51 21.32 51 22 51 C24 54 24 54 24 58 C25.485 58.495 25.485 58.495 27 59 C27 60.32 27 61.64 27 63 C27.66 63 28.32 63 29 63 C29.28875 63.78375 29.5775 64.5675 29.875 65.375 C30.84912254 68.09671632 30.84912254 68.09671632 33 70 C33.37125 70.94875 33.7425 71.8975 34.125 72.875 C36.09391 77.73096457 39.17655285 81.85464748 42.16015625 86.1328125 C43.82506145 88.72737815 44.88841864 91.14447099 46 94 C46.99 94.99 46.99 94.99 48 96 C48.67441131 97.6635479 49.3400321 99.33066942 50 101 C50.53625 101.886875 51.0725 102.77375 51.625 103.6875 C53 106 53 106 53 108 C53.66 108 54.32 108 55 108 C55.44730469 108.845625 55.89460938 109.69125 56.35546875 110.5625 C59.40503515 116.28450092 62.49631877 121.91292712 66.015625 127.36328125 C67 129 67 129 68.0625 131.6875 C68.94297763 134.19405043 68.94297763 134.19405043 71.125 136.5625 C73 139 73 139 73 143 C73.66 143 74.32 143 75 143 C76.25282406 145.16507459 77.50228442 147.33198357 78.75 149.5 C79.09804687 150.10070312 79.44609375 150.70140625 79.8046875 151.3203125 C81.62007718 154.48043528 83.35178618 157.65729156 84.96484375 160.92578125 C87.10829032 165.26213045 89.41404807 169.48739404 91.8125 173.6875 C92.21275391 174.42033203 92.61300781 175.15316406 93.02539062 175.90820312 C96.00191606 181.09025446 99.03629906 183.70918228 104 187 C104 187.66 104 188.32 104 189 C105.5778125 189.433125 105.5778125 189.433125 107.1875 189.875 C111 191 111 191 113.3984375 192.0546875 C118.69923267 193.98080226 124.58381955 193.44378825 130.0625 192.4375 C140.25017586 187.4520416 145.94683453 181.10633094 151 171 C151.66 171 152.32 171 153 171 C153.226875 170.175 153.45375 169.35 153.6875 168.5 C155.00334795 164.99107212 156.63842788 162.28838277 158.6640625 159.16796875 C159.99132696 157.01407467 161.09536063 154.84359961 162.1875 152.5625 C164.85558929 147.10086268 167.93945061 141.92049652 171.04321289 136.69970703 C175.49266003 129.20563914 179.75806775 121.61293638 184 114 C184.66 114 185.32 114 186 114 C186.09410156 113.30519531 186.18820312 112.61039062 186.28515625 111.89453125 C187.14662883 108.40627344 188.61974887 105.78258977 190.4375 102.6875 C191.05496094 101.61886719 191.67242187 100.55023438 192.30859375 99.44921875 C192.86675781 98.64097656 193.42492187 97.83273438 194 97 C194.66 97 195.32 97 196 97 C196.061875 96.175 196.12375 95.35 196.1875 94.5 C197.05408496 90.76701862 198.3263189 88.60852703 200.4140625 85.46484375 C202.38470373 82.40209838 204.15588457 79.23699174 205.9375 76.0625 C208.67664953 71.21225751 211.5728423 66.52652793 214.70703125 61.921875 C218.52776787 56.24271362 221.47896992 50.12441675 224.45092773 43.97387695 C226.047811 40.7138927 227.76668521 37.85437705 230 35 C231.03041427 33.01549844 232.03685937 31.01800895 233 29 C233.66 29 234.32 29 235 29 C235.37125 27.4840625 235.37125 27.4840625 235.75 25.9375 C236.54971512 23.04356686 237.34576645 21.47611144 239.0625 18.875 C242.18376185 13.8276063 241.82652967 7.76788849 242 2 C242.33 2 242.66 2 243 2 C243.05493545 4.14553464 243.09320737 6.29149766 243.125 8.4375 C243.14820313 9.63246094 243.17140625 10.82742187 243.1953125 12.05859375 C242.7525971 20.99259049 239.97589132 27.65233276 235.6875 35.4375 C234.73214544 37.20653069 233.77771483 38.97606067 232.82421875 40.74609375 C232.12498291 42.03555908 232.12498291 42.03555908 231.41162109 43.35107422 C229.18776069 47.52417788 227.08785258 51.75757024 225 56 C224.34 56 223.68 56 223 56 C222.72615479 56.72203613 222.45230957 57.44407227 222.17016602 58.18798828 C221.03236916 60.92221406 219.73609095 63.41676797 218.27734375 65.9921875 C217.74334961 66.93698975 217.20935547 67.88179199 216.65917969 68.85522461 C216.09102539 69.85175049 215.52287109 70.84827637 214.9375 71.875 C214.35258789 72.90568604 213.76767578 73.93637207 213.16503906 74.99829102 C209.5801931 81.2934262 205.92243847 87.53643664 202.16259766 93.72827148 C199.6255808 97.91833323 197.19687845 102.15892847 194.8125 106.4375 C191.02224196 113.23779328 187.12013722 119.96862238 183.1875 126.6875 C178.09421527 135.39024786 173.05377023 144.12066642 168.06298828 152.88256836 C164.89027691 158.45070375 161.68257351 163.99548652 158.43359375 169.51953125 C157.11416746 171.8024623 155.86547116 174.11109449 154.625 176.4375 C148.72112323 187.06059406 142.60549409 197.41123448 130.4921875 201.48828125 C121.72528494 203.28838193 112.90968588 203.18509103 105.125 198.51171875 C96.71302664 192.52746564 92.47885109 184.45025533 87.48779297 175.61328125 C85.29993691 171.77035193 83.05314812 167.9626025 80.81274414 164.15014648 C75.70409302 155.44858276 70.68839589 146.70645324 65.82592773 137.86523438 C60.61534372 128.43022349 55.12103407 119.1585471 49.67236328 109.85986328 C47.26778367 105.74785664 44.88265152 101.62473873 42.5 97.5 C38.41174715 90.42818278 34.30425221 83.36776351 30.1875 76.3125 C29.31146118 74.81046021 29.31146118 74.81046021 28.41772461 73.27807617 C25.36535838 68.04634299 22.30760613 62.81784693 19.2421875 57.59375 C16.30346422 52.5832017 13.38016487 47.56400995 10.47119141 42.53613281 C9.56719904 40.97777358 8.65896944 39.4218518 7.74365234 37.87011719 C0.29042359 25.22560119 -0.32302407 14.30278796 0 0 Z " fill="#6D6C6C" transform="translate(89,91)"/>
<path d="M0 0 C5.67721646 3.10005899 8.88117182 6.63906231 10.78125 12.97265625 C11.7083543 20.23497325 9.99099441 25.45343366 6.09375 31.66015625 C0.88820644 36.86569981 -3.86759733 38.24440847 -11.21875 38.47265625 C-18.62419777 38.24272265 -23.35510046 36.83630579 -28.59375 31.59765625 C-32.62808852 25.08064787 -33.04662315 18.49595354 -32.21875 10.97265625 C-29.64942335 5.53754218 -25.31092305 1.4419504 -19.859375 -1.1484375 C-13.41920714 -3.2919845 -6.18435259 -2.72466354 0 0 Z " fill="#100F10" transform="translate(302.21875,328.02734375)"/>
<path d="M0 0 C8 0 8 0 10.32519531 2.14575195 C11.96862469 4.94652934 13.45161485 7.71209218 14.796875 10.66796875 C15.28027344 11.72564453 15.76367188 12.78332031 16.26171875 13.87304688 C16.75285156 14.96681641 17.24398437 16.06058594 17.75 17.1875 C18.25660156 18.29287109 18.76320312 19.39824219 19.28515625 20.53710938 C23 28.7227826 23 28.7227826 23 31 C25.98845099 28.44494627 27.28096163 25.61119381 28.8828125 22.0546875 C29.41003906 20.89582031 29.93726563 19.73695313 30.48046875 18.54296875 C31.02900356 17.32047295 31.57717643 16.09781469 32.125 14.875 C33.20781468 12.47512909 34.2949427 10.07727769 35.3828125 7.6796875 C35.86121582 6.61476074 36.33961914 5.54983398 36.83251953 4.45263672 C38 2 38 2 39 1 C42.3 1 45.6 1 49 1 C49 13.87 49 26.74 49 40 C46.36 40 43.72 40 41 40 C41 32.08 41 24.16 41 16 C38.25130601 18.74869399 37.26622139 20.20205225 35.7734375 23.6328125 C35.3815625 24.52097656 34.9896875 25.40914063 34.5859375 26.32421875 C34.18632812 27.24847656 33.78671875 28.17273438 33.375 29.125 C32.57220824 30.96176723 31.7676173 32.79774951 30.9609375 34.6328125 C30.60821777 35.44637207 30.25549805 36.25993164 29.89208984 37.09814453 C29 39 29 39 28 40 C25.36 40 22.72 40 20 40 C16.37 32.41 12.74 24.82 9 17 C8.67 24.59 8.34 32.18 8 40 C5.36 40 2.72 40 0 40 C0 26.8 0 13.6 0 0 Z " fill="#111012" transform="translate(124,326)"/>
<path d="M0 0 C1.13501953 -0.10828125 1.13501953 -0.10828125 2.29296875 -0.21875 C9.94307226 1.96360511 15.08653927 13.66628408 19.22070312 19.91210938 C20.04538086 21.1409082 20.04538086 21.1409082 20.88671875 22.39453125 C21.37744873 23.13550049 21.86817871 23.87646973 22.3737793 24.63989258 C23.85404745 26.75793088 23.85404745 26.75793088 26.8125 28.5 C26.8125 19.26 26.8125 10.02 26.8125 0.5 C29.1225 0.5 31.4325 0.5 33.8125 0.5 C35.65526509 2.34276509 34.94124411 4.92963759 34.95144653 7.38134766 C34.9494223 8.20425293 34.94739807 9.0271582 34.9453125 9.875 C34.94626923 10.71466309 34.94722595 11.55432617 34.94821167 12.41943359 C34.94889348 14.19824295 34.94703917 15.97705477 34.94287109 17.75585938 C34.93752283 20.48833776 34.94281605 23.22065176 34.94921875 25.953125 C34.94855797 27.6770837 34.94727681 29.40104229 34.9453125 31.125 C34.94733673 31.94790527 34.94936096 32.77081055 34.95144653 33.61865234 C34.92745054 39.38504946 34.92745054 39.38504946 33.8125 40.5 C30.33824953 41.20247124 27.27588068 41.28630898 23.8125 40.5 C20.82816779 37.95656913 19.03006051 34.86228695 17.0625 31.5 C16.00684721 29.81147428 14.94956776 28.12396439 13.890625 26.4375 C13.38466797 25.6125 12.87871094 24.7875 12.35742188 23.9375 C8.48363873 17.30400789 8.48363873 17.30400789 2.8125 12.5 C2.8125 21.74 2.8125 30.98 2.8125 40.5 C0.1725 40.5 -2.4675 40.5 -5.1875 40.5 C-5.21214775 34.96411467 -5.23033496 29.428261 -5.24243164 23.89233398 C-5.24747244 22.0075627 -5.25430498 20.12279535 -5.26293945 18.23803711 C-5.27501617 15.53498364 -5.28073068 12.83198169 -5.28515625 10.12890625 C-5.29031754 9.28099014 -5.29547882 8.43307404 -5.30079651 7.5594635 C-5.30099195 5.53928932 -5.24956211 3.51922066 -5.1875 1.5 C-3.63817598 -0.04932402 -2.15061911 0.14409508 0 0 Z " fill="#131214" transform="translate(327.1875,325.5)"/>
<path d="M0 0 C1.671875 1.16796875 1.671875 1.16796875 3.671875 4.16796875 C3.796875 6.85546875 3.796875 6.85546875 3.671875 9.16796875 C0.484375 9.41796875 0.484375 9.41796875 -3.328125 9.16796875 C-4.05 8.50796875 -4.771875 7.84796875 -5.515625 7.16796875 C-9.99836013 3.98024599 -14.98852285 4.68685246 -20.328125 5.16796875 C-21.318125 5.66296875 -21.318125 5.66296875 -22.328125 6.16796875 C-21.998125 7.81796875 -21.668125 9.46796875 -21.328125 11.16796875 C-20.2659375 11.4103125 -19.20375 11.65265625 -18.109375 11.90234375 C0.76982908 16.33151526 0.76982908 16.33151526 5.671875 22.16796875 C6.35244465 26.67674268 6.02741686 28.61374173 3.546875 32.48046875 C-1.64683687 37.33546028 -7.11965808 37.51003629 -13.890625 37.48046875 C-15.0034082 37.50463867 -15.0034082 37.50463867 -16.13867188 37.52929688 C-20.71392083 37.53337101 -23.58311205 37.05618907 -27.328125 34.16796875 C-30.52284587 30.80056027 -31.328125 29.92943243 -31.328125 25.16796875 C-28.140625 24.85546875 -28.140625 24.85546875 -24.328125 25.16796875 C-23.585625 25.99296875 -22.843125 26.81796875 -22.078125 27.66796875 C-18.38073018 31.02923677 -15.88076219 30.65447835 -11.046875 30.5390625 C-8.2028454 30.15086881 -5.9362737 29.34447061 -3.328125 28.16796875 C-3.823125 25.69296875 -3.823125 25.69296875 -4.328125 23.16796875 C-5.61847656 22.94882812 -6.90882812 22.7296875 -8.23828125 22.50390625 C-9.95594936 22.18477666 -11.67338564 21.86439749 -13.390625 21.54296875 C-14.23818359 21.40246094 -15.08574219 21.26195312 -15.95898438 21.1171875 C-21.97581804 19.9556366 -26.37375458 17.99527522 -30.328125 13.16796875 C-31.5848782 9.18825028 -31.79629832 7.25215959 -30.140625 3.41796875 C-22.89177132 -5.58060824 -9.66981486 -4.74402571 0 0 Z " fill="#121012" transform="translate(89.328125,328.83203125)"/>
<path d="M0 0 C2.33294775 -0.04241723 4.66702567 -0.04092937 7 0 C8.72167829 1.72167829 8.17011092 4.04216034 8.2109375 6.390625 C8.23929688 7.49277344 8.26765625 8.59492188 8.296875 9.73046875 C8.34860808 12.06104422 8.39298103 14.39179568 8.4296875 16.72265625 C8.460625 17.82996094 8.4915625 18.93726563 8.5234375 20.078125 C8.54325684 21.09293945 8.56307617 22.10775391 8.58349609 23.15332031 C9.06566045 26.44876956 10.0355999 28.32795298 12 31 C16.31473595 33.87649064 20.4189255 33.20376904 25.375 32.8125 C27.22593744 32.09071786 27.22593744 32.09071786 28.07788086 29.83300781 C29.09289216 26.71460932 29.3012557 24.13418083 29.37890625 20.859375 C29.41306641 19.70695312 29.44722656 18.55453125 29.48242188 17.3671875 C29.50884766 16.17351562 29.53527344 14.97984375 29.5625 13.75 C29.62213479 11.36968361 29.68571276 8.98946157 29.75390625 6.609375 C29.77783447 5.55717773 29.8017627 4.50498047 29.82641602 3.42089844 C30 1 30 1 31 0 C34.5 -0.125 34.5 -0.125 38 0 C40.50693426 2.50693426 39.28284163 9.13871821 39.3125 12.5 C39.34150391 13.56476563 39.37050781 14.62953125 39.40039062 15.7265625 C39.45528288 22.60076162 38.70081256 28.09777878 35 34 C30.07194292 38.80485565 26.03076958 40.3008584 19.1875 40.375 C13.11811752 40.27415875 9.6883483 39.87298338 5 36 C1.00831638 30.85282901 -0.12782949 27.22768122 -0.09765625 20.80078125 C-0.09443359 19.59228516 -0.09121094 18.38378906 -0.08789062 17.13867188 C-0.07951172 15.87603516 -0.07113281 14.61339844 -0.0625 13.3125 C-0.05573242 11.40114258 -0.05573242 11.40114258 -0.04882812 9.45117188 C-0.03702873 6.30073436 -0.02056597 3.15039051 0 0 Z " fill="#161516" transform="translate(183,326)"/>
<path d="M0 0 C2 1 2 1 3.1171875 3.5703125 C4.10445072 7.40578644 4.22387631 10.95037124 4.125 14.875 C4.11597656 15.56335938 4.10695312 16.25171875 4.09765625 16.9609375 C4.07432513 18.64077838 4.03846326 20.32043746 4 22 C3.15695313 22.06058594 2.31390625 22.12117188 1.4453125 22.18359375 C0.34960938 22.26738281 -0.74609375 22.35117188 -1.875 22.4375 C-3.51082031 22.55931641 -3.51082031 22.55931641 -5.1796875 22.68359375 C-7.94728971 22.83001703 -7.94728971 22.83001703 -10 24 C-11.78515625 23.546875 -11.78515625 23.546875 -14.0625 22.75 C-18.8573398 21.21676634 -23.60860686 20.31096144 -28.5625 19.5 C-45.04214758 16.74229163 -45.04214758 16.74229163 -49 12 C-49.58303563 8.75165866 -49.32843929 7.47295257 -47.4375 4.75 C-44.29447198 2.49346707 -41.75434086 2.15615976 -38 2 C-36.97777344 1.9484375 -35.95554688 1.896875 -34.90234375 1.84375 C-27.04806572 1.62732902 -21.78192531 1.8968818 -15.5625 7 C-14 9 -14 9 -14 12 C-8.39 12 -2.78 12 3 12 C2.505 10.39125 2.01 8.7825 1.5 7.125 C0 2.25 0 2.25 0 0 Z " fill="#7B7B7B" transform="translate(241,128)"/>
<path d="M0 0 C3.59578966 1.96728327 6.1625323 4.3250646 8 8 C8.80889711 14.51095871 7.90069977 18.7287841 4 24 C0.25401677 27.4154553 -3.67297736 27.56749695 -8.55859375 27.421875 C-12.61626006 26.72071026 -14.24739574 25.02786468 -17 22 C-19.89048536 17.27285207 -19.80884364 12.36709334 -19 7 C-15.72601567 -1.39409198 -7.96335132 -1.61245499 0 0 Z " fill="#F6F6F6" transform="translate(297,333)"/>
<path d="M0 0 C1.5035371 1.89920476 2.87739693 3.77337009 4.03125 5.90625 C7.07057943 11.40990059 10.07369471 13.92886909 16 16 C17.45212891 16.53173828 17.45212891 16.53173828 18.93359375 17.07421875 C24.55797652 18.6310479 30.39594883 18.40890759 36.1875 18.4375 C37.9209668 18.48680664 37.9209668 18.48680664 39.68945312 18.53710938 C49.90800275 18.60022226 60.14084584 15.87675989 68 9 C69.57801521 6.42456009 70.84878602 3.79000094 72 1 C72.33 1 72.66 1 73 1 C73.59400109 6.36800981 73.75984864 10.70500855 70.5625 15.25 C64.38089417 22.43520772 56.90770049 26.45118346 47.44335938 27.203125 C44.6045257 27.30472964 41.77809329 27.32877104 38.9375 27.3125 C37.9283252 27.30758545 36.91915039 27.3026709 35.87939453 27.29760742 C15.35207188 26.9785553 15.35207188 26.9785553 9.265625 21.5703125 C8.14414063 20.29800781 8.14414063 20.29800781 7 19 C6.13375 18.030625 5.2675 17.06125 4.375 16.0625 C0.53606044 11.11228846 -1.59267738 7.37128186 -1 1 C-0.67 0.67 -0.34 0.34 0 0 Z " fill="#727272" transform="translate(174,175)"/>
<path d="M0 0 C3.26174851 0.51249206 5.37932015 1.18078836 7.41357422 3.86572266 C8.82707386 6.31616853 10.15068228 8.79318438 11.4375 11.3125 C14.87510736 18.01103887 17.6292852 21.91863749 24 26 C24 26.66 24 27.32 24 28 C25.051875 28.28875 26.10375 28.5775 27.1875 28.875 C31 30 31 30 33.3984375 31.0546875 C39.72870626 33.35487525 46.86552503 32.50955794 53 30 C54.28755188 29.61110678 55.57943784 29.23631216 56.875 28.875 C57.90625 28.58625 58.9375 28.2975 60 28 C60.66 28.66 61.32 29.32 62 30 C61.90123194 32.96304177 61.03926256 33.96073744 58.9375 36.0625 C50.69809076 41.49700397 42.72930132 42.07989074 33 41 C19.40115222 36.9419884 13.66413514 25.57022666 7.15283203 14.02050781 C5.17599333 10.55580702 3.0649007 7.17358317 0.9609375 3.78515625 C0 2 0 2 0 0 Z " fill="#767575" transform="translate(169,252)"/>
<path d="M0 0 C2.64 0 5.28 0 8 0 C8 10.56 8 21.12 8 32 C15.92 32 23.84 32 32 32 C32 34.31 32 36.62 32 39 C21.44 39 10.88 39 0 39 C0 26.13 0 13.26 0 0 Z " fill="#0E0D0E" transform="translate(232,327)"/>
<path d="M0 0 C1.21120592 3.68867257 0.93203776 7.02738377 0.75 10.875 C0.59049541 16.82601354 0.59049541 16.82601354 3.5 21.75 C4.325 22.4925 5.15 23.235 6 24 C6 24.66 6 25.32 6 26 C6.639375 26.0825 7.27875 26.165 7.9375 26.25 C10.60720971 26.90380646 12.39173731 27.67127142 14.8046875 28.89453125 C22.10751166 32.19429848 30.09216088 32.85002774 37.95898438 33.97851562 C44.74539432 35.05808914 49.2840226 35.835703 54 41 C53.6875 43.375 53.6875 43.375 53 46 C52.01 46.66 51.02 47.32 50 48 C50 47.34 50 46.68 50 46 C42.16800424 44.26213112 34.37087412 42.65621351 26.42578125 41.52734375 C24 41 24 41 21 39 C18.94204875 38.63964739 16.87862976 38.31004057 14.8125 38 C8.04788389 36.55637801 5.28313692 33.84625261 1.390625 28.27734375 C-0.68935655 24.87108183 -1.12781384 23.04428657 -1.1328125 19.0625 C-1.13410156 18.08539063 -1.13539063 17.10828125 -1.13671875 16.1015625 C-1.13285156 15.07804688 -1.12898437 14.05453125 -1.125 13 C-1.12886719 11.97648438 -1.13273438 10.95296875 -1.13671875 9.8984375 C-1.13542969 8.92132813 -1.13414062 7.94421875 -1.1328125 6.9375 C-1.13168457 6.03902344 -1.13055664 5.14054688 -1.12939453 4.21484375 C-1 2 -1 2 0 0 Z " fill="#757575" transform="translate(176,128)"/>
<path d="M0 0 C2.31 0 4.62 0 7 0 C8 1 8 1 8.11352539 4.69360352 C8.11336624 6.33871292 8.10766988 7.98382731 8.09765625 9.62890625 C8.0962413 10.49313705 8.09482635 11.35736786 8.09336853 12.24778748 C8.08775239 15.01939292 8.07519719 17.7909188 8.0625 20.5625 C8.05748708 22.4368478 8.05292381 24.31119685 8.04882812 26.18554688 C8.03777772 30.79039544 8.0205023 35.39518421 8 40 C5.36 40 2.72 40 0 40 C0 26.8 0 13.6 0 0 Z " fill="#161617" transform="translate(105,326)"/>
<path d="M0 0 C1.54262145 0.28657394 3.08405606 0.57953877 4.625 0.875 C5.48351562 1.03742188 6.34203125 1.19984375 7.2265625 1.3671875 C10 2 10 2 12.796875 2.9765625 C17.41694895 4.45273247 22.11539494 5.10760471 26.8984375 5.85546875 C30.57114117 6.46107414 33.7995602 7.0357089 37 9 C36.3125 10.9375 36.3125 10.9375 35 13 C27.34329597 15.27670934 15.76861357 15.37883158 8.125 12.75 C3.87144885 10.36801135 2.51744435 8.55233306 1 4 C-4.61 3.67 -10.22 3.34 -16 3 C-16 2.67 -16 2.34 -16 2 C-10.72 2 -5.44 2 0 2 C0 1.34 0 0.68 0 0 Z " fill="#0F0F0F" transform="translate(189,165)"/>
<path d="M0 0 C1.03543945 -0.01160156 1.03543945 -0.01160156 2.09179688 -0.0234375 C7.54248567 -0.00277138 12.02797729 0.65537409 16.375 4.0625 C18.27271301 6.52249835 18.55852159 8.23111944 19.0625 11.25 C8.60462084 10.92319128 -3.39690411 10.02029794 -12.9375 5.25 C-12.9375 4.26 -12.9375 3.27 -12.9375 2.25 C-8.63915373 0.13853166 -4.6989262 -0.05235572 0 0 Z " fill="#0F0F0F" transform="translate(207.9375,137.75)"/>
<path d="M0 0 C0.33 0 0.66 0 1 0 C1.05493545 2.14553464 1.09320737 4.29149766 1.125 6.4375 C1.14820313 7.63246094 1.17140625 8.82742187 1.1953125 10.05859375 C0.74971004 19.05085143 -2.07794898 25.77722787 -6.375 33.625 C-7.09816406 34.97851562 -7.09816406 34.97851562 -7.8359375 36.359375 C-10.47862506 41.2856893 -13.20223922 46.16027164 -16 51 C-16.66 50.67 -17.32 50.34 -18 50 C-17.84512147 43.91749784 -16.7422286 39.87481036 -13.27734375 34.86328125 C-11.57135693 32.37473167 -10.29240292 29.72084825 -9 27 C-8.34 27 -7.68 27 -7 27 C-6.62875 25.4840625 -6.62875 25.4840625 -6.25 23.9375 C-5.45028488 21.04356686 -4.65423355 19.47611144 -2.9375 16.875 C0.18376185 11.8276063 -0.17347033 5.76788849 0 0 Z " fill="#686667" transform="translate(331,93)"/>
<path d="M0 0 C0.33 2.97 0.66 5.94 1 9 C0.15695313 9.06058594 -0.68609375 9.12117187 -1.5546875 9.18359375 C-2.65039062 9.26738281 -3.74609375 9.35117188 -4.875 9.4375 C-6.51082031 9.55931641 -6.51082031 9.55931641 -8.1796875 9.68359375 C-10.94728971 9.83001703 -10.94728971 9.83001703 -13 11 C-15.3494053 10.39239518 -17.68529088 9.72870472 -20 9 C-19.01 8.67 -18.02 8.34 -17 8 C-17.33 6.68 -17.66 5.36 -18 4 C-17.01 4.33 -16.02 4.66 -15 5 C-15 3.68 -15 2.36 -15 1 C-12.8750734 0.83240016 -10.75005624 0.66594799 -8.625 0.5 C-7.44164062 0.4071875 -6.25828125 0.314375 -5.0390625 0.21875 C-3.36213157 0.09804546 -1.68126944 0 0 0 Z " fill="#727272" transform="translate(244,141)"/>
<path d="M0 0 C0.33 0 0.66 0 1 0 C1.02578125 0.89460938 1.0515625 1.78921875 1.078125 2.7109375 C1.51720837 12.07139651 2.89549491 19.34324236 8.125 27.1875 C10 30 10 30 11.0625 33.8125 C11.371875 34.864375 11.68125 35.91625 12 37 C12.99 37.33 13.98 37.66 15 38 C15.33 39.65 15.66 41.3 16 43 C14.68 43 13.36 43 12 43 C11.67 41.02 11.34 39.04 11 37 C9.68 37 8.36 37 7 37 C0.09372635 24.84812156 -0.30763261 13.62128825 0 0 Z " fill="#636162" transform="translate(89,91)"/>
<path d="M0 0 C3.39450272 0.27554685 4.69014401 0.65897862 7.01953125 3.22265625 C10.74857705 9.12900984 12.9280632 12.9732358 12 20 C8.73070976 16.14164845 6.20932966 12.14035887 3.75 7.75 C3.38648437 7.11320313 3.02296875 6.47640625 2.6484375 5.8203125 C0 1.14074248 0 1.14074248 0 0 Z " fill="#797878" transform="translate(116,161)"/>
<path d="M0 0 C2.29013653 3.4352048 2.17842973 4.985331 2 9 C1.15695313 9.06058594 0.31390625 9.12117187 -0.5546875 9.18359375 C-1.65039062 9.26738281 -2.74609375 9.35117188 -3.875 9.4375 C-5.51082031 9.55931641 -5.51082031 9.55931641 -7.1796875 9.68359375 C-9.94728971 9.83001703 -9.94728971 9.83001703 -12 11 C-14.3494053 10.39239518 -16.68529088 9.72870472 -19 9 C-18.01 8.67 -17.02 8.34 -16 8 C-16.33 6.68 -16.66 5.36 -17 4 C-16.34 4.33 -15.68 4.66 -15 5 C-15 5.66 -15 6.32 -15 7 C-10.38 6.67 -5.76 6.34 -1 6 C-0.67 4.02 -0.34 2.04 0 0 Z " fill="#454545" transform="translate(243,141)"/>
<path d="M0 0 C0.33 0.66 0.66 1.32 1 2 C0.34 2 -0.32 2 -1 2 C-1.23460937 2.65355469 -1.46921875 3.30710938 -1.7109375 3.98046875 C-3.39755459 7.93124152 -5.49426475 11.58704258 -7.625 15.3125 C-8.04523438 16.05306641 -8.46546875 16.79363281 -8.8984375 17.55664062 C-9.92948495 19.37269011 -10.96436046 21.18656533 -12 23 C-12.66 22.01 -13.32 21.02 -14 20 C-13.06080198 16.58473446 -11.79085534 14.20942714 -9 12 C-8.34 12 -7.68 12 -7 12 C-7.33 11.01 -7.66 10.02 -8 9 C-6.6875 6.8125 -6.6875 6.8125 -5 5 C-4.34 5 -3.68 5 -3 5 C-2.87625 4.360625 -2.7525 3.72125 -2.625 3.0625 C-2.41875 2.381875 -2.2125 1.70125 -2 1 C-1.34 0.67 -0.68 0.34 0 0 Z " fill="#817F80" transform="translate(313,145)"/>
<path d="M0 0 C0.66 0.33 1.32 0.66 2 1 C-0.97 6.28 -3.94 11.56 -7 17 C-7.66 16.67 -8.32 16.34 -9 16 C-8.67 13.69 -8.34 11.38 -8 9 C-7.34 9 -6.68 9 -6 9 C-5.9071875 7.88625 -5.9071875 7.88625 -5.8125 6.75 C-4.75814862 3.1814261 -3.00090227 2.07754772 0 0 Z " fill="#7C7A7B" transform="translate(322,127)"/>
<path d="M0 0 C-2.31 3.96 -4.62 7.92 -7 12 C-7.66 11.34 -8.32 10.68 -9 10 C-8.61554852 6.44382384 -7.59823137 3.19646274 -6 0 C-3 -1 -3 -1 0 0 Z " fill="#767475" transform="translate(258,242)"/>
<path d="M0 0 C0.66 0 1.32 0 2 0 C0.62712658 3.69876091 -1.06355453 6.9514476 -3.125 10.3125 C-3.66382813 11.19550781 -4.20265625 12.07851562 -4.7578125 12.98828125 C-5.16773438 13.65214844 -5.57765625 14.31601563 -6 15 C-6.66 14.67 -7.32 14.34 -8 14 C-7.73705179 8.65338645 -7.73705179 8.65338645 -7 6 C-4.5625 4.1875 -4.5625 4.1875 -2 3 C-1.34 2.01 -0.68 1.02 0 0 Z " fill="#7A7979" transform="translate(298,168)"/>
<path d="M0 0 C0.66 0 1.32 0 2 0 C2.3125 3.25 2.3125 3.25 2 7 C-0.375 9.4375 -0.375 9.4375 -3 11 C-3.66 11 -4.32 11 -5 11 C-5.33 12.65 -5.66 14.3 -6 16 C-6.66 16 -7.32 16 -8 16 C-6.82630868 12.02750629 -5.53354257 9.24293448 -3 6 C-1.96958573 4.01549844 -0.96314063 2.01800895 0 0 Z " fill="#585758" transform="translate(322,120)"/>
<path d="M0 0 C0.74056641 0.00902344 1.48113281 0.01804688 2.24414062 0.02734375 C4.05873467 0.05075787 5.87316071 0.08662385 7.6875 0.125 C7.6875 0.455 7.6875 0.785 7.6875 1.125 C6.63949219 1.16238281 5.59148437 1.19976562 4.51171875 1.23828125 C3.13277695 1.30394515 1.75387229 1.37039235 0.375 1.4375 C-0.66043945 1.47133789 -0.66043945 1.47133789 -1.71679688 1.50585938 C-5.80456734 1.7086997 -5.80456734 1.7086997 -9.29296875 3.66796875 C-9.62941406 4.14878906 -9.96585938 4.62960938 -10.3125 5.125 C-7.3425 5.62 -7.3425 5.62 -4.3125 6.125 C-7.10073655 7.1576802 -8.1802274 7.17009293 -11.0625 6.1875 C-11.805 5.836875 -12.5475 5.48625 -13.3125 5.125 C-13.3125 4.135 -13.3125 3.145 -13.3125 2.125 C-8.90220217 -0.08449832 -4.82309676 -0.1120648 0 0 Z " fill="#373737" transform="translate(208.3125,137.875)"/>
<path d="M0 0 C0.33 0 0.66 0 1 0 C1.08096803 1.45742463 1.13917774 2.91612807 1.1875 4.375 C1.22230469 5.18710938 1.25710938 5.99921875 1.29296875 6.8359375 C1.19628906 7.55007812 1.09960938 8.26421875 1 9 C0.01 9.66 -0.98 10.32 -2 11 C-2.33 11.99 -2.66 12.98 -3 14 C-3.66 14 -4.32 14 -5 14 C-5.35048466 9.79418409 -4.61867025 8.22297877 -2 5 C-1.28837557 3.35202764 -0.60968047 1.68834592 0 0 Z " fill="#686566" transform="translate(313,136)"/>
<path d="M0 0 C2.50037734 2.17424117 3.43628586 3.73045798 4 7 C4.66 7 5.32 7 6 7 C6.33 8.32 6.66 9.64 7 11 C4.53199953 9.84826645 2.95216435 8.95216435 1 7 C0.46375 6.525625 -0.0725 6.05125 -0.625 5.5625 C-2 4 -2 4 -2 1 C-1.34 0.67 -0.68 0.34 0 0 Z " fill="#696868" transform="translate(138,192)"/>
<path d="M0 0 C0.66 0 1.32 0 2 0 C2 7.59 2 15.18 2 23 C1.67 23 1.34 23 1 23 C0.67 17.06 0.34 11.12 0 5 C-0.66 5 -1.32 5 -2 5 C-1.34 3.35 -0.68 1.7 0 0 Z " fill="#AEAEAF" transform="translate(163,342)"/>
<path d="M0 0 C4.42857143 5.14285714 4.42857143 5.14285714 5 9 C4.01 9.495 4.01 9.495 3 10 C2.01 9.67 1.02 9.34 0 9 C-1.125 2.25 -1.125 2.25 0 0 Z " fill="#706F6F" transform="translate(180,264)"/>
<path d="M0 0 C0.99 0 1.98 0 3 0 C1.74194623 4.50802601 0.09592835 7.4912812 -3 11 C-3.66 10.34 -4.32 9.68 -5 9 C-3.35 6.03 -1.7 3.06 0 0 Z " fill="#7D7B7C" transform="translate(263,226)"/>
<path d="M0 0 C0.99 0.33 1.98 0.66 3 1 C1.02 4.63 -0.96 8.26 -3 12 C-3.66 11.01 -4.32 10.02 -5 9 C-4.33333333 7.66666667 -3.66666667 6.33333333 -3 5 C-2.4740625 3.9171875 -2.4740625 3.9171875 -1.9375 2.8125 C-1 1 -1 1 0 0 Z " fill="#807E7F" transform="translate(283,192)"/>
<path d="M0 0 C3.3 0.66 6.6 1.32 10 2 C6.29847322 2.92538169 5.36541838 3.08174162 2 2 C1.67 2.66 1.34 3.32 1 4 C-4.61 3.67 -10.22 3.34 -16 3 C-16 2.67 -16 2.34 -16 2 C-10.72 2 -5.44 2 0 2 C0 1.34 0 0.68 0 0 Z " fill="#3D3D3D" transform="translate(189,165)"/>
<path d="M0 0 C0.33 0 0.66 0 1 0 C1.20382481 7.9604911 1.30082703 15.33057658 -1 23 C-1.66 23.66 -2.32 24.32 -3 25 C-3.625 23.125 -3.625 23.125 -4 21 C-3.34 20.34 -2.68 19.68 -2 19 C-1.53927893 16.97286326 -1.53927893 16.97286326 -1.3671875 14.6484375 C-1.24150391 13.37226562 -1.24150391 13.37226562 -1.11328125 12.0703125 C-1.03464844 11.18085937 -0.95601563 10.29140625 -0.875 9.375 C-0.74544922 8.02921875 -0.74544922 8.02921875 -0.61328125 6.65625 C-0.4009076 4.4381252 -0.19682915 2.21954931 0 0 Z " fill="#8C8A8B" transform="translate(331,93)"/>
<path d="M0 0 C0.33 0.66 0.66 1.32 1 2 C1.66 2.33 2.32 2.66 3 3 C1.35 4.65 -0.3 6.3 -2 8 C-1.67 8.66 -1.34 9.32 -1 10 C-2.32 10.33 -3.64 10.66 -5 11 C-3.77472971 6.94718288 -2.30119506 3.55639236 0 0 Z " fill="#616061" transform="translate(248,249)"/>
<path d="M0 0 C1.32 0.33 2.64 0.66 4 1 C3.875 2.875 3.875 2.875 3 5 C-0.0625 6.25 -0.0625 6.25 -3 7 C-1.125 2.25 -1.125 2.25 0 0 Z " fill="#6B6A6A" transform="translate(256,235)"/>
<path d="M0 0 C0.99 0 1.98 0 3 0 C3.268125 0.804375 3.53625 1.60875 3.8125 2.4375 C4.204375 3.283125 4.59625 4.12875 5 5 C5.99 5.33 6.98 5.66 8 6 C7.67 7.98 7.34 9.96 7 12 C3.6497537 8.18765077 1.83025211 4.66714289 0 0 Z " fill="#868484" transform="translate(97,128)"/>
<path d="M0 0 C0.33 0.66 0.66 1.32 1 2 C1.66 2.33 2.32 2.66 3 3 C2.34 3.66 1.68 4.32 1 5 C0.67 5.99 0.34 6.98 0 8 C-2.0625 9.1875 -2.0625 9.1875 -4 10 C-3.43454163 6.04179141 -2.19097652 3.3340947 0 0 Z " fill="#585858" transform="translate(279,195)"/>
<path d="M0 0 C0.99 0 1.98 0 3 0 C3.33 0.99 3.66 1.98 4 3 C4.99 3.66 5.98 4.32 7 5 C6.34 6.32 5.68 7.64 5 9 C0.57142857 3.85714286 0.57142857 3.85714286 0 0 Z " fill="#7C7B7B" transform="translate(138,198)"/>
<path d="M0 0 C0.66 0.33 1.32 0.66 2 1 C0.92598892 3.91517292 0.22189824 5.77810176 -2 8 C-2.66 6.68 -3.32 5.36 -4 4 C-2.68 2.68 -1.36 1.36 0 0 Z " fill="#7C7A7A" transform="translate(240,267)"/>
<path d="M0 0 C0.33 0.66 0.66 1.32 1 2 C0.22265625 3.7265625 0.22265625 3.7265625 -0.9375 5.625 C-1.618125 6.73875 -2.29875 7.8525 -3 9 C-3.99 8.67 -4.98 8.34 -6 8 C-6 6 -6 6 -4 4 C-2.66666667 2.66666667 -1.33333333 1.33333333 0 0 Z " fill="#817F80" transform="translate(249,254)"/>
<path d="M0 0 C0.66 0 1.32 0 2 0 C1.67 2.31 1.34 4.62 1 7 C-0.65 7.66 -2.3 8.32 -4 9 C-2.80100302 5.9168649 -1.52299523 2.93720508 0 0 Z " fill="#575757" transform="translate(273,205)"/>
<path d="M0 0 C0.66 0.33 1.32 0.66 2 1 C-0.64 3.97 -3.28 6.94 -6 10 C-6 6.41087588 -5.33563446 5.89142971 -3 3.3125 C-2.443125 2.68988281 -1.88625 2.06726563 -1.3125 1.42578125 C-0.879375 0.95527344 -0.44625 0.48476562 0 0 Z " fill="#383636" transform="translate(100,72)"/>
<path d="M0 0 C0.33 0.66 0.66 1.32 1 2 C0.34 2 -0.32 2 -1 2 C-1.4640625 3.175625 -1.4640625 3.175625 -1.9375 4.375 C-3 7 -3 7 -4 9 C-4.99 9 -5.98 9 -7 9 C-6.34 7.68 -5.68 6.36 -5 5 C-4.34 5 -3.68 5 -3 5 C-2.814375 4.0409375 -2.814375 4.0409375 -2.625 3.0625 C-2.41875 2.381875 -2.2125 1.70125 -2 1 C-1.34 0.67 -0.68 0.34 0 0 Z " fill="#878585" transform="translate(313,145)"/>
<path d="M0 0 C0.99 0.33 1.98 0.66 3 1 C3.33 2.65 3.66 4.3 4 6 C2.68 6 1.36 6 0 6 C-0.38218767 4.34385343 -0.71395102 2.67542976 -1 1 C-0.67 0.67 -0.34 0.34 0 0 Z " fill="#5E5D5D" transform="translate(101,128)"/>
<path d="M0 0 C0.99 0.33 1.98 0.66 3 1 C3.75 2.9375 3.75 2.9375 4 5 C3.67 5.66 3.34 6.32 3 7 C2.34 7 1.68 7 1 7 C-0.0625 4.625 -0.0625 4.625 -1 2 C-0.67 1.34 -0.34 0.68 0 0 Z " fill="#797778" transform="translate(134,188)"/>
<path d="M0 0 C0.2475 0.515625 0.495 1.03125 0.75 1.5625 C2.39581616 4.77184151 4.1976096 7.87585664 6 11 C4 11 4 11 1.875 9.4375 C-0.62040957 6.19346756 -0.3069357 3.9901641 0 0 Z " fill="#666465" transform="translate(90,107)"/>
<path d="M0 0 C0.33 0.66 0.66 1.32 1 2 C0.0625 4.625 0.0625 4.625 -1 7 C-1.66 7 -2.32 7 -3 7 C-3 7.99 -3 8.98 -3 10 C-3.66 10 -4.32 10 -5 10 C-3.66511872 6.40608886 -2.03977277 3.24509304 0 0 Z " fill="#4C4C4C" transform="translate(290,176)"/>
<path d="M0 0 C-1.45255699 3.82946843 -3.42895561 5.12050295 -7 7 C-3.86206897 0 -3.86206897 0 0 0 Z " fill="#BCBCBC" transform="translate(184,121)"/>
<path d="M0 0 C0 3 0 3 -1.25 4.75 C-1.8275 5.1625 -2.405 5.575 -3 6 C-4.32 5.67 -5.64 5.34 -7 5 C-4.69 3.35 -2.38 1.7 0 0 Z " fill="#5B5B5B" transform="translate(232,275)"/>
</svg>
